<svg xmlns="http://www.w3.org/2000/svg" viewBox="0 0 512 512">
  <defs>
    <linearGradient id="bg" x1="0%" y1="0%" x2="100%" y2="100%">
      <stop offset="0%" style="stop-color:#0071e3"/>
      <stop offset="100%" style="stop-color:#0051a8"/>
    </linearGradient>
  </defs>
  <rect width="512" height="512" rx="96" fill="url(#bg)"/>
  <g fill="#fff">
    <rect x="120" y="140" width="272" height="40" rx="8"/>
    <rect x="120" y="220" width="272" height="40" rx="8"/>
    <rect x="120" y="300" width="272" height="40" rx="8"/>
    <path d="M360 140 L400 180 L360 220 Z" fill="none" stroke="#fff" stroke-width="8" stroke-linejoin="round"/>
  </g>
  <path d="M80 100 H432 A32 32 0 0 1 464 132 V460 A32 32 0 0 1 432 492 H80 A32 32 0 0 1 48 460 V132 A32 32 0 0 1 80 100Z" fill="none" stroke="#fff" stroke-width="24"/>
</svg>